<svg xmlns="http://www.w3.org/2000/svg" viewBox="0 0 288 288"><defs><style>.a{fill:none;}.b{fill:#fff;}</style></defs><title>BE</title><path class="a" d="M204.27,98.37c-21.7,0-40.15,14.26-46.86,34.13h93.71C244.41,112.63,226,98.37,204.27,98.37Z"/><path class="a" d="M85.86,98.48c-27.32,0-49.46,22.67-49.46,50.62s22.14,50.62,49.46,50.62,49.47-22.66,49.47-50.62S113.18,98.48,85.86,98.48Z"/><path class="b" d="M205.27,201.84c-27.38,0-49.58-22.71-49.58-50.74H274.21c0-39-30.86-70.55-68.94-70.55A68.59,68.59,0,0,0,146,115c-12-20.66-34.07-34.49-59.26-34.49A68,68,0,0,0,37.4,101.84V34.34H17.8v184.1H37.4V200.37a68,68,0,0,0,49.35,21.29c25.2,0,47.24-13.84,59.26-34.5,12,20.66,34.06,34.5,59.26,34.5,30,0,55.47-19.57,65-46.91H249.13A49.43,49.43,0,0,1,205.27,201.84Zm0-101.47c21.7,0,40.14,14.26,46.85,34.13H158.41C165.12,114.63,183.57,100.37,205.27,100.37ZM86.86,201.72c-27.32,0-49.46-22.66-49.46-50.62s22.14-50.62,49.46-50.62,49.47,22.67,49.47,50.62S114.18,201.72,86.86,201.72Z"/></svg>